<svg xmlns="http://www.w3.org/2000/svg" viewBox="0 0 40 40" width="40" height="40">
  <defs>
    <radialGradient id="bgGrad" cx="40%" cy="35%" r="60%">
      <stop offset="0%" stop-color="#4ade80"/>
      <stop offset="100%" stop-color="#16a34a"/>
    </radialGradient>
    <filter id="shadow" x="-20%" y="-20%" width="140%" height="140%">
      <feDropShadow dx="0" dy="2" stdDeviation="2" flood-color="#16a34a" flood-opacity="0.35"/>
    </filter>
  </defs>

  <!-- Circle background -->
  <circle cx="20" cy="20" r="19" fill="url(#bgGrad)" filter="url(#shadow)"/>

  <!-- Main leaf -->
  <path d="M20 9 C20 9 11 14.5 13 22.5 C14.5 28 20 27.5 20 27.5 C20 27.5 25.5 28 27 22.5 C29 14.5 20 9 20 9Z"
        fill="white" opacity="0.95"/>

  <!-- Leaf center vein -->
  <line x1="20" y1="9" x2="20" y2="27.5" stroke="#22c55e" stroke-width="1" stroke-linecap="round" opacity="0.6"/>

  <!-- Stem -->
  <path d="M20 27.5 Q18 30 18 32" stroke="white" stroke-width="1.8" stroke-linecap="round" fill="none" opacity="0.85"/>

  <!-- Small decorative leaf/sprout -->
  <path d="M18 30 C18 30 14 29 14.5 26 C17 27 18 30 18 30Z" fill="white" opacity="0.7"/>
</svg>
